ffmpeg version 3.4.8-0ubuntu0.2 Copyright (c) 2000-2020 the FFmpeg developers
  built with gcc 7 (Ubuntu 7.5.0-3ubuntu1~18.04)
  configuration: --prefix=/usr --extra-version=0ubuntu0.2 --toolchain=hardened --libdir=/usr/lib/x86_64-linux-gnu --incdir=/usr/include/x86_64-linux-gnu --enable-gpl --disable-stripping --enable-avresample --enable-avisynth --enable-gnutls --enable-ladspa --enable-libass --enable-libbluray --enable-libbs2b --enable-libcaca --enable-libcdio --enable-libflite --enable-libfontconfig --enable-libfreetype --enable-libfribidi --enable-libgme --enable-libgsm --enable-libmp3lame --enable-libmysofa --enable-libopenjpeg --enable-libopenmpt --enable-libopus --enable-libpulse --enable-librubberband --enable-librsvg --enable-libshine --enable-libsnappy --enable-libsoxr --enable-libspeex --enable-libssh --enable-libtheora --enable-libtwolame --enable-libvorbis --enable-libvpx --enable-libwavpack --enable-libwebp --enable-libx265 --enable-libxml2 --enable-libxvid --enable-libzmq --enable-libzvbi --enable-omx --enable-openal --enable-opengl --enable-sdl2 --enable-libdc1394 --enable-libdrm --enable-libiec61883 --enable-chromaprint --enable-frei0r --enable-libopencv --enable-libx264 --enable-shared
  libavutil      55. 78.100 / 55. 78.100
  libavcodec     57.107.100 / 57.107.100
  libavformat    57. 83.100 / 57. 83.100
  libavdevice    57. 10.100 / 57. 10.100
  libavfilter     6.107.100 /  6.107.100
  libavresample   3.  7.  0 /  3.  7.  0
  libswscale      4.  8.100 /  4.  8.100
  libswresample   2.  9.100 /  2.  9.100
  libpostproc    54.  7.100 / 54.  7.100
[rawvideo @ 0x56471acdda20] Estimating duration from bitrate, this may be inaccurate
Input #0, rawvideo, from '../../SVC-Encoder-20220109T061506Z-001/SVC-Encoder/Dataset/RollerCoaster/6f_2x2/tile_yuv/f5_t3_480x480.yuv':
  Duration: 00:00:10.00, start: 0.000000, bitrate: 82944 kb/s
    Stream #0:0: Video: rawvideo (I420 / 0x30323449), yuv420p, 480x480, 82944 kb/s, 30 tbr, 30 tbn, 30 tbc
Stream mapping:
  Stream #0:0 -> #0:0 (rawvideo (native) -> h264 (libx264))
Press [q] to stop, [?] for help
[libx264 @ 0x56471aceac60] using cpu capabilities: MMX2 SSE2Fast LZCNT SSSE3 SSE4.2 AVX
[libx264 @ 0x56471aceac60] profile High, level 3.0
Output #0, rawvideo, to 'RollerCoaster_f5_t3_480x480_x264_QP_32.h264':
  Metadata:
    encoder         : Lavf57.83.100
    Stream #0:0: Video: h264 (libx264), yuv420p, 480x480, q=-1--1, 30 fps, 30 tbn, 30 tbc
    Metadata:
      encoder         : Lavc57.107.100 libx264
    Side data:
      cpb: bitrate max/min/avg: 0/0/0 buffer size: 0 vbv_delay: -1
frame=  116 fps=0.0 q=38.0 PSNR=Y:nan U:nan V:nan *:nan size=      70kB time=00:00:02.43 bitrate= 234.8kbits/s speed=4.76x    frame=  196 fps=192 q=38.0 PSNR=Y:nan U:nan V:nan *:nan size=     135kB time=00:00:05.10 bitrate= 216.1kbits/s speed=5.01x    frame=  285 fps=187 q=38.0 PSNR=Y:nan U:nan V:nan *:nan size=     199kB time=00:00:08.06 bitrate= 202.4kbits/s speed=5.29x    frame=  300 fps=163 q=38.0 LPSNR=Y:inf U:inf V:inf *:inf size=     248kB time=00:00:09.93 bitrate= 204.3kbits/s speed=5.41x    
video:248kB audio:0kB subtitle:0kB other streams:0kB global headers:0kB muxing overhead: 0.000000%
[libx264 @ 0x56471aceac60] frame I:2     Avg QP:31.27  size: 14438  PSNR Mean Y:35.90 U:42.96 V:45.39 Avg:37.34 Global:37.15
[libx264 @ 0x56471aceac60] frame P:76    Avg QP:33.09  size:  1890  PSNR Mean Y:34.43 U:43.06 V:44.82 Avg:35.95 Global:35.94
[libx264 @ 0x56471aceac60] frame B:222   Avg QP:37.53  size:   365  PSNR Mean Y:34.22 U:42.96 V:44.75 Avg:35.75 Global:35.73
[libx264 @ 0x56471aceac60] consecutive B-frames:  1.3%  0.0%  0.0% 98.7%
[libx264 @ 0x56471aceac60] mb I  I16..4: 10.5% 82.9%  6.6%
[libx264 @ 0x56471aceac60] mb P  I16..4:  1.1%  2.9%  0.3%  P16..4: 41.8%  8.2%  1.5%  0.0%  0.0%    skip:44.2%
[libx264 @ 0x56471aceac60] mb B  I16..4:  0.0%  0.0%  0.0%  B16..8: 25.0%  1.4%  0.2%  direct: 0.1%  skip:73.3%  L0:33.1% L1:66.5% BI: 0.4%
[libx264 @ 0x56471aceac60] 8x8 transform intra:72.4% inter:78.1%
[libx264 @ 0x56471aceac60] coded y,uvDC,uvAC intra: 53.7% 57.9% 17.9% inter: 4.0% 2.5% 0.0%
[libx264 @ 0x56471aceac60] i16 v,h,dc,p:  9% 46% 23% 21%
[libx264 @ 0x56471aceac60] i8 v,h,dc,ddl,ddr,vr,hd,vl,hu:  7% 25% 21%  3% 11% 17%  7%  3%  6%
[libx264 @ 0x56471aceac60] i4 v,h,dc,ddl,ddr,vr,hd,vl,hu:  9% 26% 27%  2%  9% 18%  4%  1%  3%
[libx264 @ 0x56471aceac60] i8c dc,h,v,p: 50% 30%  9% 10%
[libx264 @ 0x56471aceac60] Weighted P-Frames: Y:0.0% UV:0.0%
[libx264 @ 0x56471aceac60] ref P L0: 59.7% 20.3% 13.0%  6.9%
[libx264 @ 0x56471aceac60] ref B L0: 90.3%  8.1%  1.6%
[libx264 @ 0x56471aceac60] ref B L1: 92.5%  7.5%
[libx264 @ 0x56471aceac60] PSNR Mean Y:34.286 U:42.983 V:44.774 Avg:35.809 Global:35.790 kb/s:202.93
